<mxfile host="app.diagrams.net" modified="2020-10-10T13:20:17.833Z" agent="5.0 (Macintosh; Intel Mac OS X 10_15_5) AppleWebKit/537.36 (KHTML, like Gecko) Chrome/86.0.4240.75 Safari/537.36" etag="O8gr8IIkgB8m07rfrCZx" version="13.7.6" type="github">
  <diagram id="jrSLjl8sclt6qSeE3GfQ" name="Page-1">
    <mxGraphModel dx="946" dy="614" grid="1" gridSize="10" guides="1" tooltips="1" connect="1" arrows="1" fold="1" page="1" pageScale="1" pageWidth="827" pageHeight="1169" math="0" shadow="0">
      <root>
        <mxCell id="0" />
        <mxCell id="1" parent="0" />
        <mxCell id="HdEOmiaPKBgpapyJj0df-3" value="" style="whiteSpace=wrap;html=1;aspect=fixed;" vertex="1" parent="1">
          <mxGeometry x="60" y="200" width="230" height="230" as="geometry" />
        </mxCell>
        <mxCell id="HdEOmiaPKBgpapyJj0df-7" value="" style="whiteSpace=wrap;html=1;aspect=fixed;" vertex="1" parent="1">
          <mxGeometry x="500" y="200" width="230" height="230" as="geometry" />
        </mxCell>
        <mxCell id="HdEOmiaPKBgpapyJj0df-9" value="pod" style="rounded=1;whiteSpace=wrap;html=1;" vertex="1" parent="1">
          <mxGeometry x="555" y="370" width="120" height="60" as="geometry" />
        </mxCell>
        <mxCell id="HdEOmiaPKBgpapyJj0df-10" value="eth0" style="rounded=0;whiteSpace=wrap;html=1;" vertex="1" parent="1">
          <mxGeometry x="585" y="370" width="60" height="20" as="geometry" />
        </mxCell>
        <mxCell id="HdEOmiaPKBgpapyJj0df-11" value="eth0" style="rounded=0;whiteSpace=wrap;html=1;" vertex="1" parent="1">
          <mxGeometry x="110" y="200" width="110" height="40" as="geometry" />
        </mxCell>
        <mxCell id="HdEOmiaPKBgpapyJj0df-12" value="vm" style="text;html=1;strokeColor=none;fillColor=none;align=center;verticalAlign=middle;whiteSpace=wrap;rounded=0;" vertex="1" parent="1">
          <mxGeometry x="540" y="310" width="40" height="20" as="geometry" />
        </mxCell>
        <mxCell id="HdEOmiaPKBgpapyJj0df-14" value="" style="edgeStyle=orthogonalEdgeStyle;rounded=0;orthogonalLoop=1;jettySize=auto;html=1;startArrow=classic;startFill=1;" edge="1" parent="1" source="HdEOmiaPKBgpapyJj0df-13" target="HdEOmiaPKBgpapyJj0df-10">
          <mxGeometry relative="1" as="geometry" />
        </mxCell>
        <mxCell id="HdEOmiaPKBgpapyJj0df-13" value="bridge" style="rounded=0;whiteSpace=wrap;html=1;" vertex="1" parent="1">
          <mxGeometry x="580" y="321" width="70" height="30" as="geometry" />
        </mxCell>
        <mxCell id="HdEOmiaPKBgpapyJj0df-15" value="flannel.1" style="rounded=0;whiteSpace=wrap;html=1;" vertex="1" parent="1">
          <mxGeometry x="580" y="271" width="70" height="30" as="geometry" />
        </mxCell>
        <mxCell id="HdEOmiaPKBgpapyJj0df-22" style="edgeStyle=none;rounded=0;orthogonalLoop=1;jettySize=auto;html=1;exitX=0.5;exitY=0;exitDx=0;exitDy=0;entryX=0.5;entryY=1;entryDx=0;entryDy=0;startArrow=none;startFill=0;" edge="1" parent="1" source="HdEOmiaPKBgpapyJj0df-16" target="HdEOmiaPKBgpapyJj0df-21">
          <mxGeometry relative="1" as="geometry" />
        </mxCell>
        <mxCell id="HdEOmiaPKBgpapyJj0df-23" style="edgeStyle=none;rounded=0;orthogonalLoop=1;jettySize=auto;html=1;exitX=0.5;exitY=0;exitDx=0;exitDy=0;entryX=0.5;entryY=1;entryDx=0;entryDy=0;startArrow=none;startFill=0;" edge="1" parent="1" source="HdEOmiaPKBgpapyJj0df-16" target="HdEOmiaPKBgpapyJj0df-11">
          <mxGeometry relative="1" as="geometry" />
        </mxCell>
        <mxCell id="HdEOmiaPKBgpapyJj0df-16" value="进程" style="rounded=1;whiteSpace=wrap;html=1;" vertex="1" parent="1">
          <mxGeometry x="105" y="370" width="120" height="60" as="geometry" />
        </mxCell>
        <mxCell id="HdEOmiaPKBgpapyJj0df-17" value="ETCD" style="rounded=1;whiteSpace=wrap;html=1;" vertex="1" parent="1">
          <mxGeometry x="310" y="40" width="120" height="60" as="geometry" />
        </mxCell>
        <mxCell id="HdEOmiaPKBgpapyJj0df-19" style="rounded=0;orthogonalLoop=1;jettySize=auto;html=1;startArrow=none;startFill=0;" edge="1" parent="1" source="HdEOmiaPKBgpapyJj0df-18" target="HdEOmiaPKBgpapyJj0df-17">
          <mxGeometry relative="1" as="geometry" />
        </mxCell>
        <mxCell id="HdEOmiaPKBgpapyJj0df-20" value="watch" style="edgeLabel;html=1;align=center;verticalAlign=middle;resizable=0;points=[];" vertex="1" connectable="0" parent="HdEOmiaPKBgpapyJj0df-19">
          <mxGeometry x="-0.1146" y="-1" relative="1" as="geometry">
            <mxPoint as="offset" />
          </mxGeometry>
        </mxCell>
        <mxCell id="HdEOmiaPKBgpapyJj0df-18" value="Daemon" style="rounded=0;whiteSpace=wrap;html=1;" vertex="1" parent="1">
          <mxGeometry x="240" y="200" width="50" height="90" as="geometry" />
        </mxCell>
        <mxCell id="HdEOmiaPKBgpapyJj0df-24" style="edgeStyle=none;rounded=0;orthogonalLoop=1;jettySize=auto;html=1;exitX=0.5;exitY=0;exitDx=0;exitDy=0;entryX=0.5;entryY=1;entryDx=0;entryDy=0;startArrow=none;startFill=0;" edge="1" parent="1" source="HdEOmiaPKBgpapyJj0df-21" target="HdEOmiaPKBgpapyJj0df-11">
          <mxGeometry relative="1" as="geometry" />
        </mxCell>
        <mxCell id="HdEOmiaPKBgpapyJj0df-21" value="vtep" style="rounded=0;whiteSpace=wrap;html=1;" vertex="1" parent="1">
          <mxGeometry x="180" y="305" width="70" height="20" as="geometry" />
        </mxCell>
        <mxCell id="HdEOmiaPKBgpapyJj0df-27" value="路由规则" style="text;html=1;strokeColor=none;fillColor=none;align=center;verticalAlign=middle;whiteSpace=wrap;rounded=0;" vertex="1" parent="1">
          <mxGeometry x="140" y="340" width="60" height="20" as="geometry" />
        </mxCell>
        <mxCell id="HdEOmiaPKBgpapyJj0df-28" value="" style="edgeStyle=orthogonalEdgeStyle;rounded=0;orthogonalLoop=1;jettySize=auto;html=1;startArrow=classic;startFill=1;" edge="1" parent="1">
          <mxGeometry relative="1" as="geometry">
            <mxPoint x="614.5" y="302" as="sourcePoint" />
            <mxPoint x="614.5" y="321" as="targetPoint" />
          </mxGeometry>
        </mxCell>
      </root>
    </mxGraphModel>
  </diagram>
</mxfile>
